<?xml version="1.0" standalone="no"?>
<!DOCTYPE svg PUBLIC "-//W3C//DTD SVG 20010904//EN"
 "http://www.w3.org/TR/2001/REC-SVG-20010904/DTD/svg10.dtd">
<svg version="1.0" xmlns="http://www.w3.org/2000/svg"
 width="16.000000pt" height="16.000000pt" viewBox="0 0 16.000000 16.000000"
 preserveAspectRatio="xMidYMid meet">
<metadata>
Created by potrace 1.11, written by Peter Selinger 2001-2013
</metadata>
<g transform="translate(0.000000,16.000000) scale(0.011111,-0.011111)"
fill="#000000" stroke="none">
<path d="M515 1424 c-6 -8 -29 -19 -53 -25 -74 -16 -153 -69 -252 -169 -74
-73 -104 -112 -133 -170 -20 -42 -37 -86 -37 -98 0 -12 -9 -31 -20 -42 -26
-26 -29 -120 -5 -120 9 0 18 -7 21 -15 10 -25 90 -65 131 -65 40 0 102 28 139
61 53 49 221 45 282 -5 89 -75 167 -73 257 5 11 9 46 23 77 29 79 18 152 2
231 -50 78 -50 121 -53 189 -10 59 37 66 61 44 156 -16 65 -32 102 -103 231
-28 51 -169 183 -225 212 -24 12 -54 28 -68 36 -14 8 -35 15 -47 15 -13 0 -32
9 -43 20 -13 13 -33 20 -60 20 -77 0 -41 -36 51 -52 129 -22 295 -145 384
-283 52 -80 102 -250 89 -302 -7 -26 -59 -53 -104 -53 -39 0 -91 19 -123 47
-16 12 -36 23 -45 23 -9 0 -26 7 -36 15 -11 8 -41 15 -67 15 -46 0 -74 -11
-208 -80 -54 -27 -55 -27 -110 -12 -31 8 -61 22 -68 30 -18 22 -123 62 -163
62 -37 0 -138 -37 -155 -57 -5 -7 -34 -21 -62 -32 l-53 -21 -51 20 c-27 11
-61 32 -73 47 -21 24 -22 30 -11 48 8 11 17 43 20 70 7 50 47 132 105 218 71
106 254 232 352 244 32 4 60 14 77 29 l26 23 -45 1 c-30 0 -48 -5 -55 -16z"/>
<path d="M484 701 c27 -11 58 -29 70 -39 26 -24 80 -52 98 -51 7 0 -3 7 -22
16 -19 8 -55 30 -80 48 -25 18 -61 35 -80 39 -30 6 -28 4 14 -13z"/>
<path d="M940 710 c-19 -7 -14 -8 20 -4 35 4 55 0 87 -18 150 -83 163 -88 211
-88 26 0 53 5 59 11 6 6 21 9 34 7 18 -2 23 -8 21 -23 -4 -23 -59 -74 -82 -76
-11 0 -11 -2 -2 -6 21 -8 104 66 100 91 -3 23 -13 23 -124 10 -55 -6 -95 8
-180 67 -46 31 -105 43 -144 29z"/>
<path d="M349 685 c-92 -68 -181 -89 -250 -61 -48 19 -99 27 -99 16 0 -6 15
-10 33 -10 17 -1 43 -7 57 -15 41 -23 123 -19 180 10 27 13 52 30 56 36 3 6
25 20 48 30 22 10 34 19 25 19 -9 0 -31 -11 -50 -25z"/>
<path d="M891 687 c-23 -28 -116 -70 -170 -77 l-56 -7 48 -2 c34 -1 63 7 105
28 48 24 107 71 90 71 -3 0 -11 -6 -17 -13z"/>
<path d="M372 610 c-30 -7 -104 -51 -98 -58 2 -2 20 8 40 22 39 26 116 41 168
32 25 -5 28 -4 13 3 -24 11 -78 12 -123 1z"/>
<path d="M921 611 c-14 -4 11 -6 57 -6 45 0 73 3 64 7 -22 8 -90 8 -121 -1z"/>
<path d="M6 601 c-4 -6 -1 -11 7 -11 8 0 17 -6 20 -13 3 -8 22 -24 44 -36 34
-19 35 -19 13 -1 -14 11 -37 32 -51 46 -17 17 -29 22 -33 15z"/>
<path d="M527 599 c7 -7 15 -10 18 -7 3 3 -2 9 -12 12 -14 6 -15 5 -6 -5z"/>
<path d="M823 564 c-29 -19 -53 -37 -53 -39 0 -6 69 34 99 57 42 32 8 19 -46
-18z"/>
<path d="M1086 587 c53 -31 104 -57 104 -54 0 7 -101 67 -113 67 -7 0 -2 -6 9
-13z"/>
<path d="M560 586 c0 -2 8 -10 18 -17 15 -13 16 -12 3 4 -13 16 -21 21 -21 13z"/>
<path d="M239 533 c-13 -16 -12 -17 4 -4 9 7 17 15 17 17 0 8 -8 3 -21 -13z"/>
<path d="M620 546 c0 -2 8 -10 18 -17 15 -13 16 -12 3 4 -13 16 -21 21 -21 13z"/>
<path d="M198 513 c7 -3 16 -2 19 1 4 3 -2 6 -13 5 -11 0 -14 -3 -6 -6z"/>
<path d="M668 513 c7 -3 16 -2 19 1 4 3 -2 6 -13 5 -11 0 -14 -3 -6 -6z"/>
<path d="M738 513 c7 -3 16 -2 19 1 4 3 -2 6 -13 5 -11 0 -14 -3 -6 -6z"/>
<path d="M1208 513 c7 -3 16 -2 19 1 4 3 -2 6 -13 5 -11 0 -14 -3 -6 -6z"/>
<path d="M318 464 c-62 -43 -72 -46 -130 -46 -35 0 -71 -4 -80 -9 -30 -16 -21
-54 19 -89 47 -41 79 -37 174 24 113 72 175 71 291 -7 55 -37 70 -42 118 -42
48 0 65 6 123 42 77 49 135 67 180 57 38 -8 101 -39 142 -69 17 -13 45 -26 62
-30 29 -6 37 -2 63 26 28 31 42 88 23 90 -5 0 -34 2 -66 4 -48 4 -71 12 -131
50 -64 39 -80 45 -129 45 -43 0 -62 -5 -84 -23 -113 -93 -223 -98 -340 -17
-51 35 -65 40 -113 40 -49 0 -62 -5 -122 -46z"/>
<path d="M374 285 c-27 -14 -67 -41 -89 -60 l-40 -35 35 -30 c56 -47 155 -99
226 -116 36 -9 71 -23 79 -30 16 -17 235 -20 235 -4 0 5 26 16 58 25 69 18
204 85 252 125 29 24 33 32 24 47 -16 27 -115 91 -152 98 -37 7 -102 -19 -151
-60 -53 -46 -215 -52 -260 -11 -25 22 -131 76 -150 76 -9 0 -39 -11 -67 -25z"/>
</g>
</svg>
