<?xml version="1.0" standalone="no"?>
<!DOCTYPE svg PUBLIC "-//W3C//DTD SVG 20010904//EN"
 "http://www.w3.org/TR/2001/REC-SVG-20010904/DTD/svg10.dtd">
<svg version="1.0" xmlns="http://www.w3.org/2000/svg"
 width="301.000000pt" height="301.000000pt" viewBox="0 0 301.000000 301.000000"
 preserveAspectRatio="xMidYMid meet">
<metadata>
Created by potrace 1.11, written by Peter Selinger 2001-2013
</metadata>
<g transform="translate(0.000000,301.000000) scale(0.100000,-0.100000)"
fill="#000000" stroke="none">
<path d="M1285 2994 c-555 -83 -1020 -468 -1198 -994 -36 -106 -48 -152 -62
-240 -3 -25 -9 -57 -11 -72 -3 -22 1 -30 23 -42 16 -8 55 -35 88 -61 97 -76
149 -98 230 -98 86 0 135 20 236 97 118 90 210 125 330 127 96 1 156 -10 228
-43 54 -24 163 -95 181 -118 10 -13 86 -49 120 -58 57 -14 144 -6 191 18 23
12 73 46 111 74 117 90 208 125 328 127 142 2 240 -31 364 -124 120 -90 161
-106 259 -100 68 3 107 22 211 100 l78 57 -6 51 c-59 491 -368 931 -813 1154
-127 64 -290 120 -396 136 -175 27 -349 30 -492 9z"/>
<path d="M885 1480 c-52 -8 -88 -28 -190 -103 -122 -90 -211 -121 -345 -119
-107 1 -208 32 -285 87 -52 38 -54 38 -51 3 7 -72 18 -134 24 -143 14 -19 162
-127 199 -145 22 -10 69 -21 106 -23 84 -6 144 18 245 95 128 97 215 128 360
128 128 0 223 -35 337 -125 115 -90 197 -115 303 -92 50 10 82 29 176 101 85
64 157 96 245 110 163 25 289 -9 433 -117 111 -83 151 -100 233 -100 84 0 139
21 225 89 53 42 60 51 69 98 18 94 22 126 16 126 -3 0 -22 -10 -43 -23 -80
-50 -162 -70 -278 -69 -128 1 -210 34 -344 136 -93 71 -137 88 -225 87 -86 0
-120 -15 -229 -96 -39 -29 -93 -64 -121 -78 -129 -63 -301 -67 -435 -9 -25 11
-90 52 -144 91 -124 88 -179 106 -281 91z"/>
<path d="M877 1028 c-51 -11 -85 -29 -179 -99 -85 -63 -146 -94 -218 -110 -81
-19 -238 -11 -283 13 -10 5 -21 7 -24 4 -8 -7 58 -121 111 -193 l44 -61 52 4
c67 5 123 30 207 95 82 63 190 115 258 124 166 22 307 -15 431 -113 109 -86
170 -111 262 -106 64 3 120 28 206 93 128 96 215 130 337 132 143 2 241 -32
364 -125 84 -64 137 -92 188 -99 34 -4 40 -1 71 37 54 66 142 217 118 202 -32
-20 -191 -23 -266 -6 -71 16 -142 52 -226 116 -117 87 -141 97 -241 96 -71 0
-123 -23 -225 -98 -154 -114 -282 -148 -447 -117 -85 15 -158 51 -264 130
-108 80 -180 101 -276 81z"/>
<path d="M910 583 c-64 -8 -112 -30 -190 -88 -47 -35 -113 -77 -145 -94 -33
-17 -55 -30 -50 -31 6 0 24 -12 40 -26 17 -14 62 -47 100 -73 334 -226 744
-307 1142 -225 221 45 463 160 635 303 l47 39 -47 24 c-26 14 -84 52 -129 85
-45 34 -99 67 -120 74 -55 18 -156 13 -208 -10 -38 -17 -109 -63 -125 -82 -3
-3 -30 -22 -60 -41 -80 -52 -173 -80 -273 -80 -153 0 -219 24 -375 140 -98 73
-161 95 -242 85z"/>
</g>
</svg>
